<?xml version="1.0" encoding="iso-8859-1"?>
<!-- Generator: Adobe Illustrator 19.0.0, SVG Export Plug-In . SVG Version: 6.00 Build 0)  -->
<svg version="1.1" id="Capa_1" xmlns="http://www.w3.org/2000/svg" xmlns:xlink="http://www.w3.org/1999/xlink" x="0px" y="0px"
	 viewBox="0 0 512 512" style="enable-background:new 0 0 512 512;" xml:space="preserve">
<g>
	<g>
		<g>
			<path d="M238.933,136.533c0-18.817-15.317-34.133-34.133-34.133c-18.817,0-34.133,15.317-34.133,34.133V204.8h68.267V136.533z"/>
			<path d="M341.333,214.294v-77.76c0-18.817-15.317-34.133-34.133-34.133c-18.817,0-34.133,15.317-34.133,34.133V204.8H307.2
				C319.689,204.8,331.253,208.415,341.333,214.294z"/>
			<path d="M136.533,34.133C136.533,15.317,121.217,0,102.4,0C83.583,0,68.267,15.317,68.267,34.133v206.79
				c17.914-18.34,41.719-30.55,68.267-34.398V34.133z"/>
			<path d="M409.6,0c-18.817,0-34.133,15.317-34.133,34.133v238.933c0,37.65-30.616,68.267-68.267,68.267h-58.247
				C284.165,369.505,307.2,412.3,307.2,460.8c0,9.433-7.633,17.067-17.067,17.067c-9.433,0-17.067-7.633-17.067-17.067
				c0-65.867-53.6-119.467-119.467-119.467c-9.433,0-17.067-7.633-17.067-17.067S144.167,307.2,153.6,307.2h153.6
				c18.817,0,34.133-15.317,34.133-34.133c0-18.817-15.317-34.133-34.133-34.133H153.6c-47.05,0-85.333,38.283-85.333,85.333V358.4
				c0,84.7,68.9,153.6,153.6,153.6h68.267c84.7,0,153.6-68.9,153.6-153.6V34.133C443.733,15.317,428.417,0,409.6,0z"/>
		</g>
	</g>
</g>
<g>
</g>
<g>
</g>
<g>
</g>
<g>
</g>
<g>
</g>
<g>
</g>
<g>
</g>
<g>
</g>
<g>
</g>
<g>
</g>
<g>
</g>
<g>
</g>
<g>
</g>
<g>
</g>
<g>
</g>
</svg>
